# xmcd
#
# Track frame offsets:
#	150
#	13315
#	27312
#	40565
#	54934
#	65492
#	79842
#	91534
#	105861
#	118407
#	131051
#	141025
#	152536
#	164257
#	177300
#	191400
#	205945
#	218084
#	232088
#	246486
#	258241
#	270555
#
# Disc length: 3782 seconds
#
# Revision: 2
# Processed by: cddbd v1.5.1PL2 Copyright (c) Steve Scherf et al.
# Submitted via: audiograbber 1.82.00
#
DISCID=2c0ec416
DTITLE=Various Artist - Vintage Country and Western:  A Nostalgic Collection
DYEAR=2000
DGENRE=Country
TTITLE0=Patsy Montana - I'm An Old Cowhand (Montana) 1936
TTITLE1=Roy Rogers - Listen To The Rhythm Of The Range (Rogers) 1938
TTITLE2=Tex Owens - Cattle Call (Owens)  1935
TTITLE3=Ken Maynard - Home On The Range (Maynard) 1930
TTITLE4=Bob Willis - T For Texas Blue Yodel No.1(Bob Willis) 1947
TTITLE5=Carter Family - Wildwood Flower (Carter Family)  1928
TTITLE6=Sons Of The Pioneers - Hold That Critter Down (Sons Of The Pioneers) 19
TTITLE6=37
TTITLE7=Tex Ritter - The Oregon Trail (Tex Ritter) 1935
TTITLE8=Gene Autry - Way Out West In Texas (Gene Autry) 1933
TTITLE9=Jimmie Rodgers - Jimmie's Texas Blues (Jimmie Rodgers) 1929
TTITLE10=Cliff Carlisle - Pan American Man (Cliff Carlisle)  1930
TTITLE11=Roy Acuff - Fireball Mail (Roy Acuff and Smokey Mountain Boys)  1942
TTITLE12=Bob Willis - New San Antonio Rose (Bob Wills)  1940
TTITLE13=Carl T Sprague - When The Work's All Done This Fall (Carl T. Sprague) 
TTITLE13=1925
TTITLE14=Montana Slim aka Wilf Carter - Little Old Log Shack (Montana Slim) 193
TTITLE14=4
TTITLE15=Tex Ritter - Rye Whiskey, Rye Whiskey (Tex Ritter)  1935
TTITLE16=Monroe Brothers - All The Good Times Are Passed And Gone (Monroe Broth
TTITLE16=ers)  1937
TTITLE17=Patsy Montana - I Want To Be A Cowboy's Sweetheart (Patsy Montana)  19
TTITLE17=37
TTITLE18=Jimmie Davis - Rockin' Blues (Jimmie Davis)  1932
TTITLE19=Gene Autry - Back In The Saddle Again (Gene Autry)  1939
TTITLE20=Milton Brown and His Brownies - Hesitation Blues (Milton Brown and His Bro
TTITLE20=wnies)  1936
TTITLE21=Carter family - John Hardy (Carter Family)  1930
EXTD=
EXTT0=
EXTT1=
EXTT2=
EXTT3=
EXTT4=
EXTT5=
EXTT6=
EXTT7=
EXTT8=
EXTT9=
EXTT10=
EXTT11=
EXTT12=
EXTT13=
EXTT14=
EXTT15=
EXTT16=
EXTT17=
EXTT18=
EXTT19=
EXTT20=
EXTT21=
PLAYORDER=
